<?xml version="1.0" encoding="utf-8"?>
<!-- Generator: Adobe Illustrator 28.0.0, SVG Export Plug-In . SVG Version: 6.00 Build 0)  -->
<svg version="1.1" id="Layer_1" xmlns="http://www.w3.org/2000/svg" xmlns:xlink="http://www.w3.org/1999/xlink" x="0px" y="0px"
	 viewBox="0 0 206.6 68.6" style="enable-background:new 0 0 206.6 68.6;" xml:space="preserve">
<style type="text/css">
	.st0{clip-path:url(#SVGID_00000160188884742411592820000013336209024160498564_);}
	.st1{fill:#FFFFFF;}
	.st2{fill:#96FC58;}
</style>
<g>
	<defs>
		<rect id="SVGID_1_" x="-20" y="4.4" width="221.6" height="61.1"/>
	</defs>
	<clipPath id="SVGID_00000085956235966942008030000013314626849210736304_">
		<use xlink:href="#SVGID_1_"  style="overflow:visible;"/>
	</clipPath>
	<g style="clip-path:url(#SVGID_00000085956235966942008030000013314626849210736304_);">
		<path class="st1" d="M8,37l1.6-9.2h12c1.4,0,1.9-0.7,2-1.3c0.1-0.6-0.2-1.4-1.5-1.4h-1.9c-6.6,0-10.1-4.1-9.1-10.1
			c1-6,6-10.1,12.6-10.1h14.5l-1.6,9.2H25.4c-1,0-1.7,0.4-1.8,1.1C23.5,16,24,16.5,25,16.5h1.6c6.7,0,10.2,4.4,9.1,10.2
			c-1,5.9-6,10.3-12.7,10.3H8z"/>
		<path class="st1" d="M48.9,29.7L47.7,37H36l5.6-32h15.5C65,5,69.2,9.7,67.9,17.3c-1.3,7.6-7.2,12.4-15,12.4H48.9L48.9,29.7z
			 M51.7,14.1l-1.1,6.5h2c2.2,0,3.5-1.5,3.8-3.3c0.3-1.7-0.5-3.2-2.7-3.2H51.7z"/>
		<path class="st1" d="M83.6,37.6c-10.2,0-16.1-7.1-14.4-16.8c1.7-9.5,10.1-16.4,20.3-16.4s16.2,7,14.5,16.4
			C102.2,30.5,93.8,37.6,83.6,37.6L83.6,37.6z M85.5,26.7c3.4,0,6-2.5,6.6-5.7c0.6-3.3-1.2-5.7-4.6-5.7c-3.4,0-6,2.4-6.6,5.7
			C80.4,24.2,82.1,26.7,85.5,26.7L85.5,26.7z"/>
		<path class="st1" d="M118.7,27.8h-2l-1.6,9.2h-11.7l5.6-32h17.1c7.7,0,11.1,4.7,9.8,11.8c-0.7,3.9-2.7,7.1-5.9,9l2.4,11.3h-12.2
			L118.7,27.8L118.7,27.8z M119.1,14.1l-1.1,6.1h2.5c2,0,3-1.4,3.3-3.1c0.3-1.6-0.2-3-2.3-3H119.1L119.1,14.1z"/>
		<path class="st1" d="M138.7,37l4-22.8h-4.5l1.6-9.2h20.7l-1.6,9.2h-4.5l-4,22.8H138.7z"/>
		<path class="st2" d="M9.8,42.9c1-0.8,2.4-1.3,4.1-1.3c0.9,0,1.8,0.1,2.7,0.3L16,45.4c-0.4-0.1-0.7-0.1-1.1-0.2
			c-0.4-0.1-0.7-0.1-1.1-0.1c-0.6,0-1.1,0.1-1.5,0.4c-0.4,0.3-0.6,0.7-0.7,1.4c0,0.2-0.1,0.3-0.1,0.4c0,0.1,0,0.2-0.1,0.4h5.8
			c0.3-1.8,0.6-3.7,0.9-5.5H22c-0.2,1-0.3,1.7-0.4,2.2c-0.1,0.5-0.2,1.2-0.4,2.2c-0.3,1.6-0.5,2.8-0.6,3.5c-0.1,0.8-0.3,1.9-0.6,3.5
			c-0.2,1.2-0.3,2-0.4,2.6c-0.1,0.5-0.2,1.4-0.4,2.5c-0.2,1.1-0.3,1.9-0.4,2.5c-0.1,0.5-0.2,1.4-0.4,2.4h-3.8c0.2-1.1,0.3-2,0.4-2.5
			c0.1-0.5,0.2-1.4,0.4-2.5c0.3-1.7,0.6-3.4,0.9-5.1c0.1-0.8,0.3-1.7,0.4-2.5h-5.8c-0.1,0.5-0.2,0.9-0.2,1.2c0,0.3-0.1,0.6-0.2,1.1
			c-0.3,1.7-0.5,3-0.6,3.9c-0.1,0.9-0.3,1.7-0.4,2.6c-0.1,0.9-0.4,2.2-0.7,3.9H5l2.8-16.7C8.1,45.1,8.8,43.7,9.8,42.9L9.8,42.9z"/>
		<path class="st2" d="M24.7,62.6c-1.1-0.7-1.8-1.6-2.3-2.9c-0.5-1.2-0.6-2.6-0.3-4.1c0.3-1.5,0.8-2.9,1.7-4.1
			c0.9-1.2,2-2.2,3.3-2.8c1.3-0.7,2.7-1,4.2-1c1.5,0,2.8,0.3,3.8,1c1.1,0.7,1.8,1.6,2.3,2.9c0.5,1.2,0.6,2.6,0.3,4.1
			c-0.3,1.5-0.8,2.9-1.7,4.1c-0.9,1.2-2,2.2-3.3,2.8c-1.3,0.7-2.7,1-4.2,1C27.1,63.6,25.8,63.3,24.7,62.6z M31.5,59.5
			c0.7-0.4,1.2-0.9,1.7-1.5c0.4-0.7,0.7-1.4,0.9-2.3c0.2-1.3,0-2.4-0.6-3.2c-0.6-0.8-1.5-1.2-2.8-1.2c-0.8,0-1.6,0.2-2.3,0.5
			c-0.7,0.4-1.2,0.9-1.7,1.5c-0.4,0.7-0.7,1.4-0.9,2.3c-0.2,0.9-0.1,1.6,0.1,2.3c0.2,0.7,0.6,1.2,1.2,1.6c0.6,0.4,1.3,0.6,2.1,0.6
			S30.8,59.8,31.5,59.5z"/>
		<path class="st2" d="M40.8,62.3c-0.7-0.9-0.9-2.2-0.6-3.8l1.8-10.8h3.7c-0.2,1-0.3,1.8-0.4,2.3c-0.1,0.5-0.2,1-0.3,1.6
			c-0.1,0.5-0.2,1.3-0.4,2.3c-0.2,1-0.3,1.7-0.4,2.2c-0.1,0.5-0.2,1.2-0.4,2.1c-0.1,0.8-0.1,1.4,0.1,1.8c0.2,0.3,0.6,0.5,1.1,0.5
			c0.6,0,1.2-0.3,1.8-0.8c0.5-0.5,1-1.2,1.4-2.1c0.4-0.9,0.7-1.9,0.9-3c0.1-0.6,0.2-1.1,0.2-1.4c0.1-0.3,0.1-0.8,0.2-1.4
			c0.2-1,0.3-1.6,0.4-2.1c0.1-0.5,0.2-1.1,0.3-2.1H54c-0.2,1.5-0.4,2.6-0.5,3.3c-0.1,0.7-0.3,1.8-0.5,3.2c-0.2,0.9-0.3,1.6-0.3,2
			c-0.1,0.4-0.2,1.1-0.3,2c-0.1,0.8-0.1,1.4,0.1,1.8c0.2,0.3,0.6,0.5,1.1,0.5c0.7,0,1.3-0.3,1.9-1c0.6-0.7,1-1.5,1.4-2.6
			c0.4-1.1,0.7-2.3,0.9-3.6c0.1-0.4,0.1-0.8,0.2-1.2c0.1-0.4,0.1-0.8,0.2-1.2c0-0.4,0.1-0.7,0.1-1.1c0-0.4,0.1-0.7,0.1-1
			c0-0.3,0-0.7,0-1H62c0,1.5-0.2,3.2-0.6,5.3c-0.4,2.4-1,4.4-1.9,6c-0.9,1.6-1.9,2.8-3.1,3.6c-1.2,0.8-2.6,1.2-4,1.2
			c-0.6,0-1.2-0.1-1.7-0.3c-0.5-0.2-0.9-0.5-1.2-0.9c-0.3-0.4-0.6-0.9-0.7-1.5h-0.2c-0.4,0.6-0.9,1.1-1.4,1.5
			c-0.5,0.4-1,0.7-1.5,0.9c-0.5,0.2-1,0.3-1.6,0.3C42.6,63.6,41.4,63.2,40.8,62.3L40.8,62.3z"/>
		<path class="st1" d="M195.8,38.1h-14.9l8.9,10.8l3.3,4l-12.2,10.4l-0.1-0.2l-0.3,0.5h-115l2.6-14.7H169l-8.9-10.8H160l2.6-14.7
			h35.8L195.8,38.1z"/>
		<path class="st2" d="M163.2,19.9l2.6-14.7h35.8L199,19.9H163.2z"/>
	</g>
</g>
</svg>
