<svg width="222" height="62" viewBox="0 0 222 62" fill="none" xmlns="http://www.w3.org/2000/svg">
<g clip-path="url(#clip0_144_190)">
<path d="M28 32.59L29.62 23.42H41.65C43.02 23.42 43.57 22.7 43.68 22.1C43.79 21.46 43.49 20.73 42.17 20.73H40.29C33.68 20.73 30.17 16.64 31.23 10.66C32.28 4.69 37.23 0.6 43.84 0.6H58.39L56.77 9.77H45.42C44.4 9.77 43.72 10.2 43.6 10.92C43.48 11.6 43.99 12.07 45.02 12.07H46.64C53.38 12.07 56.79 16.46 55.76 22.31C54.72 28.2 49.77 32.59 43.02 32.59H28Z" fill="white"/>
<path d="M68.93 25.26L67.64 32.6H55.95L61.59 0.6H77.12C85.01 0.6 89.18 5.25 87.84 12.89C86.49 20.53 80.67 25.26 72.82 25.26H68.94H68.93ZM71.68 9.69L70.54 16.18H72.59C74.77 16.18 76.06 14.64 76.37 12.89C76.67 11.18 75.91 9.69 73.69 9.69H71.68Z" fill="white"/>
<path d="M103.54 33.19C93.34 33.19 87.43 26.07 89.13 16.42C90.8 6.96 99.19 0 109.39 0C119.59 0 125.57 6.96 123.9 16.43C122.2 26.07 113.78 33.2 103.54 33.2V33.19ZM105.46 22.31C108.87 22.31 111.49 19.84 112.06 16.59C112.64 13.31 110.89 10.87 107.48 10.87C104.07 10.87 101.5 13.3 100.93 16.59C100.36 19.83 102.1 22.31 105.47 22.31H105.46Z" fill="white"/>
<path d="M138.71 23.38H136.7L135.08 32.59H123.39L129.04 0.6H146.15C153.83 0.6 157.22 5.34 155.98 12.38C155.29 16.3 153.24 19.46 150.09 21.34L152.46 32.6H140.3L138.73 23.39L138.71 23.38ZM139.12 9.69L138.05 15.75H140.57C142.62 15.75 143.59 14.34 143.89 12.68C144.18 11.06 143.69 9.69 141.6 9.69H139.13H139.12Z" fill="white"/>
<path d="M158.67 32.59L162.7 9.77H158.18L159.8 0.6H180.49L178.87 9.77H174.39L170.36 32.59H158.67Z" fill="white"/>
<path d="M29.834 38.258C30.8711 37.4256 32.2329 37 33.8923 37C34.8122 37 35.696 37.0946 36.5438 37.2932L35.9576 40.7928C35.5968 40.7171 35.2271 40.6509 34.8483 40.5752C34.4875 40.5185 34.1268 40.4996 33.7931 40.4996C33.1798 40.4996 32.6928 40.632 32.3231 40.8968C31.9533 41.1617 31.7188 41.6346 31.6016 42.3156C31.5745 42.4953 31.5475 42.6277 31.5385 42.7034C31.5294 42.779 31.5024 42.9114 31.4753 43.0911H37.2833C37.5899 41.2562 37.8966 39.4308 38.2032 37.6148H42C41.8286 38.6174 41.7114 39.3551 41.6302 39.8375C41.5491 40.3199 41.4318 41.0387 41.2695 42.0034C40.9989 43.5924 40.8005 44.7653 40.6743 45.5408C40.539 46.3164 40.3496 47.4798 40.0881 49.031C39.8897 50.1849 39.7454 51.0456 39.6552 51.5942C39.565 52.1427 39.4207 52.9845 39.2313 54.1101C39.0419 55.2167 38.9066 56.0396 38.8164 56.5787C38.7263 57.1273 38.591 57.9312 38.4106 59H34.6138C34.8032 57.8555 34.9475 57.0138 35.0377 56.4557C35.1279 55.9071 35.2721 55.0748 35.4525 53.9682C35.7411 52.2562 36.0297 50.5443 36.3183 48.8323C36.4626 47.9905 36.5979 47.1677 36.7332 46.3448H30.9252C30.835 46.865 30.7719 47.2528 30.7268 47.5082C30.6817 47.7635 30.6186 48.1419 30.5374 48.6432C30.2488 50.374 30.0324 51.6604 29.8881 52.5211C29.7438 53.3818 29.5995 54.233 29.4552 55.1032C29.3109 55.9733 29.0944 57.2597 28.7968 58.9905H25L27.8138 42.2588C28.1204 40.4239 28.7968 39.0903 29.843 38.2485L29.834 38.258Z" fill="#96FC58"/>
<path d="M44.7264 57.9669C43.652 57.2811 42.891 56.3303 42.4344 55.1143C41.9777 53.8983 41.8792 52.5269 42.1478 50.9909C42.4164 49.4549 42.9895 48.0834 43.8848 46.8674C44.7802 45.6514 45.8814 44.7097 47.2065 44.024C48.5316 43.3474 49.9463 43 51.4415 43C52.9367 43 54.1992 43.3474 55.2736 44.0331C56.339 44.7189 57.109 45.6697 57.5656 46.8857C58.0223 48.1017 58.1208 49.4731 57.8522 51.0091C57.5836 52.5451 57.0105 53.9166 56.1152 55.1326C55.2198 56.3486 54.1096 57.2994 52.7935 57.976C51.4684 58.6526 50.0537 59 48.5585 59C47.0633 59 45.8008 58.6526 44.7264 57.9669ZM51.5131 54.84C52.1936 54.4743 52.7487 53.9623 53.1964 53.304C53.644 52.6366 53.9395 51.8777 54.0828 51.0183C54.3066 49.7109 54.1186 48.6503 53.5187 47.8366C52.9188 47.032 51.9877 46.6206 50.7431 46.6206C49.9194 46.6206 49.1673 46.8034 48.4869 47.16C47.8064 47.5257 47.2513 48.0377 46.8036 48.696C46.3649 49.3634 46.0605 50.1223 45.9172 50.9817C45.765 51.8411 45.8008 52.6091 46.0157 53.2674C46.2306 53.9349 46.6156 54.4469 47.1797 54.8217C47.7437 55.1966 48.4332 55.3794 49.2569 55.3794C50.0806 55.3794 50.8327 55.1966 51.5131 54.84Z" fill="#96FC58"/>
<path d="M60.7506 57.6488C60.0508 56.7356 59.8382 55.4496 60.1217 53.8002L61.9286 43H65.6577C65.4805 44.0344 65.3565 44.8171 65.268 45.3296C65.1794 45.8515 65.0908 46.364 65.0111 46.8858C64.9225 47.4077 64.7896 48.1811 64.6214 49.2155C64.4531 50.1939 64.3379 50.9301 64.2493 51.4147C64.1696 51.8992 64.0456 52.6168 63.8862 53.558C63.7444 54.3966 63.7887 54.9837 64.019 55.3098C64.2493 55.636 64.6125 55.7944 65.1174 55.7944C65.7551 55.7944 66.3397 55.5428 66.8712 55.0396C67.4026 54.5364 67.8632 53.8468 68.2441 52.9616C68.625 52.0763 68.9084 51.0699 69.1033 49.9423C69.2096 49.3087 69.2893 48.8428 69.3425 48.5352C69.3956 48.2277 69.4753 47.7711 69.5728 47.1561C69.7322 46.2056 69.8473 45.5067 69.9271 45.0501C70.0068 44.5935 70.1219 43.9132 70.2725 43H74.0016C73.7536 44.4723 73.5675 45.5719 73.4524 46.2801C73.3373 46.9884 73.1512 48.0693 72.9121 49.5044C72.7615 50.4176 72.6464 51.0978 72.5666 51.5451C72.4958 51.9924 72.3806 52.6634 72.23 53.558C72.0883 54.3966 72.1326 54.9837 72.3629 55.3098C72.5932 55.636 72.9564 55.7944 73.4613 55.7944C74.1433 55.7944 74.7722 55.4589 75.3302 54.7973C75.8971 54.1357 76.3754 53.2504 76.774 52.1508C77.1726 51.0513 77.4826 49.8492 77.7041 48.5259C77.7749 48.1252 77.8281 47.7152 77.8812 47.3052C77.9344 46.8952 77.9875 46.4851 78.0318 46.0845C78.0761 45.7303 78.1115 45.3856 78.1469 45.0315C78.1824 44.6773 78.2089 44.3326 78.2355 43.9878C78.2621 43.643 78.2709 43.3168 78.2709 43H82C81.9734 44.4723 81.7874 46.2335 81.442 48.265C81.0345 50.6878 80.4056 52.7006 79.5553 54.2941C78.705 55.8876 77.6775 57.0804 76.4817 57.8445C75.2859 58.6179 73.9307 59 72.4338 59C71.796 59 71.2469 58.9068 70.7685 58.7204C70.2902 58.5341 69.8916 58.2545 69.5728 57.8631C69.2539 57.4811 69.0147 56.9779 68.8464 56.3628H68.625C68.191 56.9779 67.7215 57.4811 67.2166 57.8818C66.7118 58.2731 66.2069 58.562 65.6931 58.7391C65.1794 58.9161 64.6479 59 64.0988 59C62.5664 59 61.4415 58.5434 60.7506 57.6302V57.6488Z" fill="#96FC58"/>
<path d="M215.75 33.71H200.89L209.79 44.52L213.09 48.52L200.87 58.91L200.75 58.76L200.46 59.21H85.5L88.09 44.52H189.02L180.11 33.71H179.95L182.54 19.02H218.34L215.75 33.71Z" fill="white"/>
<path d="M183.17 15.51L185.76 0.82H221.55L218.96 15.51H183.17Z" fill="#96FC58"/>
</g>
<defs>
<clipPath id="clip0_144_190">
<rect width="221.55" height="61.06" fill="white"/>
</clipPath>
</defs>
</svg>
