<svg width="222" height="62" viewBox="0 0 222 62" fill="none" xmlns="http://www.w3.org/2000/svg">
<g clip-path="url(#clip0_144_190)">
<path d="M0 32.59L1.62 23.42H13.65C15.02 23.42 15.57 22.7 15.68 22.1C15.79 21.46 15.49 20.73 14.17 20.73H12.29C5.68 20.73 2.17 16.64 3.23 10.66C4.28 4.69 9.23 0.6 15.84 0.6H30.39L28.77 9.77H17.42C16.4 9.77 15.72 10.2 15.6 10.92C15.48 11.6 15.99 12.07 17.02 12.07H18.64C25.38 12.07 28.79 16.46 27.76 22.31C26.72 28.2 21.77 32.59 15.02 32.59H0Z" fill="white"/>
<path d="M40.93 25.26L39.64 32.6H27.95L33.59 0.6H49.12C57.01 0.6 61.18 5.25 59.84 12.89C58.49 20.53 52.67 25.26 44.82 25.26H40.94H40.93ZM43.68 9.69L42.54 16.18H44.59C46.77 16.18 48.06 14.64 48.37 12.89C48.67 11.18 47.91 9.69 45.69 9.69H43.68Z" fill="white"/>
<path d="M75.54 33.19C65.34 33.19 59.43 26.07 61.13 16.42C62.8 6.96 71.19 0 81.39 0C91.59 0 97.57 6.96 95.9 16.43C94.2 26.07 85.78 33.2 75.54 33.2V33.19ZM77.46 22.31C80.87 22.31 83.49 19.84 84.06 16.59C84.64 13.31 82.89 10.87 79.48 10.87C76.07 10.87 73.5 13.3 72.93 16.59C72.36 19.83 74.1 22.31 77.47 22.31H77.46Z" fill="white"/>
<path d="M110.71 23.38H108.7L107.08 32.59H95.39L101.04 0.6H118.15C125.83 0.6 129.22 5.34 127.98 12.38C127.29 16.3 125.24 19.46 122.09 21.34L124.46 32.6H112.3L110.73 23.39L110.71 23.38ZM111.12 9.69L110.05 15.75H112.57C114.62 15.75 115.59 14.34 115.89 12.68C116.18 11.06 115.69 9.69 113.6 9.69H111.13H111.12Z" fill="white"/>
<path d="M130.67 32.59L134.7 9.77H130.18L131.8 0.6H152.49L150.87 9.77H146.39L142.36 32.59H130.67Z" fill="white"/>
<path d="M149.23 32.59L150.85 23.42H162.88C164.25 23.42 164.8 22.7 164.9 22.1C165.01 21.46 164.71 20.73 163.39 20.73H161.51C154.9 20.73 151.39 16.64 152.45 10.66C153.5 4.69 158.45 0.59 165.06 0.59H179.61L177.99 9.76H166.64C165.62 9.76 164.94 10.19 164.82 10.91C164.7 11.59 165.21 12.06 166.24 12.06H167.86C174.6 12.06 178.01 16.45 176.98 22.3C175.94 28.19 170.99 32.58 164.25 32.58H149.23V32.59Z" fill="white"/>
<path d="M6.02 38.76C7.17 37.88 8.68 37.43 10.52 37.43C11.54 37.43 12.52 37.53 13.46 37.74L12.81 41.44C12.41 41.36 12 41.29 11.58 41.21C11.18 41.15 10.78 41.13 10.41 41.13C9.73 41.13 9.19 41.27 8.78 41.55C8.37 41.83 8.11 42.33 7.98 43.05C7.95 43.24 7.92 43.38 7.91 43.46C7.9 43.54 7.87 43.68 7.84 43.87H14.28C14.62 41.93 14.96 40 15.3 38.08H19.51C19.32 39.14 19.19 39.92 19.1 40.43C19.01 40.94 18.88 41.7 18.7 42.72C18.4 44.4 18.18 45.64 18.04 46.46C17.89 47.28 17.68 48.51 17.39 50.15C17.17 51.37 17.01 52.28 16.91 52.86C16.81 53.44 16.65 54.33 16.44 55.52C16.23 56.69 16.08 57.56 15.98 58.13C15.88 58.71 15.73 59.56 15.53 60.69H11.32C11.53 59.48 11.69 58.59 11.79 58C11.89 57.42 12.05 56.54 12.25 55.37C12.57 53.56 12.89 51.75 13.21 49.94C13.37 49.05 13.52 48.18 13.67 47.31H7.23C7.13 47.86 7.06 48.27 7.01 48.54C6.96 48.81 6.89 49.21 6.8 49.74C6.48 51.57 6.24 52.93 6.08 53.84C5.92 54.75 5.76 55.65 5.6 56.57C5.44 57.49 5.2 58.85 4.87 60.68H0.660004L3.78 42.99C4.12 41.05 4.87 39.64 6.03 38.75L6.02 38.76Z" fill="#96FC58"/>
<path d="M22.43 59.9C21.23 59.15 20.38 58.11 19.87 56.78C19.36 55.45 19.25 53.95 19.55 52.27C19.85 50.59 20.49 49.09 21.49 47.76C22.49 46.43 23.72 45.4 25.2 44.65C26.68 43.91 28.26 43.53 29.93 43.53C31.6 43.53 33.01 43.91 34.21 44.66C35.4 45.41 36.26 46.45 36.77 47.78C37.28 49.11 37.39 50.61 37.09 52.29C36.79 53.97 36.15 55.47 35.15 56.8C34.15 58.13 32.91 59.17 31.44 59.91C29.96 60.65 28.38 61.03 26.71 61.03C25.04 61.03 23.63 60.65 22.43 59.9ZM30.01 56.48C30.77 56.08 31.39 55.52 31.89 54.8C32.39 54.07 32.72 53.24 32.88 52.3C33.13 50.87 32.92 49.71 32.25 48.82C31.58 47.94 30.54 47.49 29.15 47.49C28.23 47.49 27.39 47.69 26.63 48.08C25.87 48.48 25.25 49.04 24.75 49.76C24.26 50.49 23.92 51.32 23.76 52.26C23.59 53.2 23.63 54.04 23.87 54.76C24.11 55.49 24.54 56.05 25.17 56.46C25.8 56.87 26.57 57.07 27.49 57.07C28.41 57.07 29.25 56.87 30.01 56.48Z" fill="#96FC58"/>
<path d="M39.65 59.59C38.86 58.61 38.62 57.23 38.94 55.46L40.98 43.87H45.19C44.99 44.98 44.85 45.82 44.75 46.37C44.65 46.93 44.55 47.48 44.46 48.04C44.36 48.6 44.21 49.43 44.02 50.54C43.83 51.59 43.7 52.38 43.6 52.9C43.51 53.42 43.37 54.19 43.19 55.2C43.03 56.1 43.08 56.73 43.34 57.08C43.6 57.43 44.01 57.6 44.58 57.6C45.3 57.6 45.96 57.33 46.56 56.79C47.16 56.25 47.68 55.51 48.11 54.56C48.54 53.61 48.86 52.53 49.08 51.32C49.2 50.64 49.29 50.14 49.35 49.81C49.41 49.48 49.5 48.99 49.61 48.33C49.79 47.31 49.92 46.56 50.01 46.07C50.1 45.58 50.23 44.85 50.4 43.87H54.61C54.33 45.45 54.12 46.63 53.99 47.39C53.86 48.15 53.65 49.31 53.38 50.85C53.21 51.83 53.08 52.56 52.99 53.04C52.91 53.52 52.78 54.24 52.61 55.2C52.45 56.1 52.5 56.73 52.76 57.08C53.02 57.43 53.43 57.6 54 57.6C54.77 57.6 55.48 57.24 56.11 56.53C56.75 55.82 57.29 54.87 57.74 53.69C58.19 52.51 58.54 51.22 58.79 49.8C58.87 49.37 58.93 48.93 58.99 48.49C59.05 48.05 59.11 47.61 59.16 47.18C59.21 46.8 59.25 46.43 59.29 46.05C59.33 45.67 59.36 45.3 59.39 44.93C59.42 44.56 59.43 44.21 59.43 43.87H63.64C63.61 45.45 63.4 47.34 63.01 49.52C62.55 52.12 61.84 54.28 60.88 55.99C59.92 57.7 58.76 58.98 57.41 59.8C56.06 60.63 54.53 61.04 52.84 61.04C52.12 61.04 51.5 60.94 50.96 60.74C50.42 60.54 49.97 60.24 49.61 59.82C49.25 59.41 48.98 58.87 48.79 58.21H48.54C48.05 58.87 47.52 59.41 46.95 59.84C46.38 60.26 45.81 60.57 45.23 60.76C44.65 60.95 44.05 61.04 43.43 61.04C41.7 61.04 40.43 60.55 39.65 59.57V59.59Z" fill="#96FC58"/>
<path d="M215.75 33.71H200.89L209.79 44.52L213.09 48.52L200.87 58.91L200.75 58.76L200.46 59.21H74.89L77.48 44.52H189.02L180.11 33.71H179.95L182.54 19.02H218.34L215.75 33.71Z" fill="white"/>
<path d="M183.17 15.51L185.76 0.82H221.55L218.96 15.51H183.17Z" fill="#96FC58"/>
</g>
<defs>
<clipPath id="clip0_144_190">
<rect width="221.55" height="61.06" fill="white"/>
</clipPath>
</defs>
</svg>
